<?xml version="1.0" encoding="utf-8"?>
<!-- Generator: Adobe Illustrator 24.1.0, SVG Export Plug-In . SVG Version: 6.00 Build 0)  -->
<svg version="1.1" id="Layer_1" xmlns="http://www.w3.org/2000/svg" xmlns:xlink="http://www.w3.org/1999/xlink" x="0px" y="0px"
	 viewBox="0 0 512 512" style="enable-background:new 0 0 512 512;" xml:space="preserve">
<style type="text/css">
	.st0{fill:#CE1D1D;}
</style>
<path class="st0" d="M273.2,508C132.1,508,17.3,395,17.3,256C17.3,117.1,132.1,4,273.2,4c90.1,0,174,47.3,220,123.7L267.6,256
	l225.6,128.3C447.1,460.7,363.2,508,273.2,508z"/>
<path class="st0" d="M273.2,8L273.2,8c87.3,0,168.7,45.1,214.4,118.2L271.7,249.1l-12.2,7l12.2,7l215.9,122.8
	C441.9,458.9,360.4,504,273.2,504C134.3,504,21.3,392.8,21.3,256S134.3,8,273.2,8 M273.2,0C129.7,0,13.3,114.6,13.3,256
	s116.3,256,259.8,256c96.6,0,180.7-52.1,225.5-129.2L275.7,256l223-126.9C453.9,52.1,369.8,0,273.2,0L273.2,0z"/>
</svg>
